trial_3_ID.mot
nRows=5
nColumns=42

name trial_3_ID.mot
datacolumns 42
datarows 5
range 4.7800000000 4.8200000000
endheader
time	pelvis_tilt_moment	pelvis_list_moment	pelvis_rotation_moment	pelvis_tx_force	pelvis_ty_force	pelvis_tz_force	hip_flexion_r_moment	hip_adduction_r_moment	hip_rotation_r_moment	knee_angle_r_moment	knee_vv_r_moment	knee_rot_r_moment	ankle_angle_r_moment	subtalar_angle_r_moment	mtp_angle_r_moment	hip_flexion_l_moment	hip_adduction_l_moment	hip_rotation_l_moment	knee_angle_l_moment	knee_vv_l_moment	knee_rot_l_moment	ankle_angle_l_moment	subtalar_angle_l_moment	mtp_angle_l_moment	lumbar_extension_moment	lumbar_bending_moment	lumbar_rotation_moment	arm_flex_r_moment	arm_add_r_moment	arm_rot_r_moment	elbow_flex_r_moment	pro_sup_r_moment	wrist_flex_r_moment	wrist_dev_r_moment	arm_flex_l_moment	arm_add_l_moment	arm_rot_l_moment	elbow_flex_l_moment	pro_sup_l_moment	wrist_flex_l_moment	wrist_dev_l_moment
        4.7800000000	      -13.5600036800	        3.6465177500	        3.9330082700	      -19.4802424400	       -4.5483674300	       12.2019579600	        6.6101914900	      -34.5400492100	        2.2315321200	      -16.1232141600	      -13.4021676200	       -0.5204375100	      -75.0066947200	       14.9925125700	        0.0220226100	      -13.4284252000	        1.5412259700	       -1.6576840800	       -7.3834468500	       -1.2675346700	        1.3037766100	        6.2698240900	       -1.0401807700	        0.0295881900	       17.9575571800	        1.0551959200	       -2.4971403400	       -1.2699358500	       -1.5249948000	        0.0924472100	       -0.1258639300	        0.0111116700	        0.0461483900	        0.0494261500	        0.1088744000	       -1.7215936800	       -0.0246159500	       -0.2652900600	       -0.0048790200	       -0.0380718200	        0.0019839300	
        4.7900000000	      -11.1307629800	        2.5548639000	        5.0179515400	      -21.8804982700	       -0.9854896000	       14.7793850500	        7.2128920400	      -32.7521425100	        2.8129359800	      -14.5820368400	      -12.6576301600	        0.0921468900	      -72.9862496700	       14.7922086200	        0.0196674900	      -13.2716566800	        0.3921945100	       -1.7424363900	       -5.4712216500	       -0.6776891500	        1.4900478200	        7.0008759600	       -1.1471136900	        0.0382943900	       20.2237001400	        2.0021356900	       -2.0451759300	       -1.2879145300	       -1.5476825200	        0.1037625200	       -0.1090809700	        0.0128956400	        0.0494988700	        0.0481671400	        0.0269323700	       -1.6934046600	       -0.0314064500	       -0.2734106800	       -0.0058421300	       -0.0370037200	        0.0025630700	
        4.8000000000	       -7.9676127400	        2.2566265500	        5.7598637000	      -24.2981303200	        1.6881337400	       16.2696896000	        7.9849161900	      -30.1946359700	        3.3429859100	      -12.6068636000	      -11.6627486900	        0.7001632300	      -70.0371178200	       14.3378290700	        0.0172147400	      -13.3182122200	       -1.5497936200	       -1.7438611900	       -3.3273398200	        0.3811071300	        1.6751081900	        7.3636697300	       -1.1685113400	        0.0460818500	       22.8716934200	        3.1207443900	       -1.6993809200	       -1.3187091900	       -1.5804774600	        0.1129963400	       -0.0981175000	        0.0148226700	        0.0518877200	        0.0468489800	       -0.0375911100	       -1.6792325900	       -0.0408306000	       -0.2813719400	       -0.0073785700	       -0.0367344400	        0.0028050100	
        4.8100000000	       -4.3983422200	        3.1453087900	        5.8826239900	      -26.4975300300	        3.4560885500	       16.2458192500	        8.7787503500	      -26.6816882400	        3.7639751100	      -10.2577311400	      -10.3430754200	        1.2800582600	      -66.1017009000	       13.6160372300	        0.0150927700	      -13.4871613200	       -4.3052531300	       -1.6267610300	       -0.9263995500	        1.9141268200	        1.8561469400	        7.3757405500	       -1.0973868300	        0.0522459500	       25.6349117700	        4.4482153400	       -1.5011678000	       -1.3693495100	       -1.6263018200	        0.1195032500	       -0.0976920100	        0.0168406700	        0.0530292000	        0.0458182800	       -0.0786973000	       -1.6863488700	       -0.0533295200	       -0.2910115400	       -0.0095229100	       -0.0373717600	        0.0028788700	
        4.8200000000	       -0.9358413600	        5.3893404200	        5.1991969200	      -28.2672563200	        4.5305672100	       14.4776798700	        9.3897450300	      -22.1683503800	        4.0159287800	       -7.6715556800	       -8.6619740900	        1.8080228100	      -61.1766114000	       12.6399465000	        0.0138277300	      -13.6843424300	       -7.8346959500	       -1.3675761200	        1.7358270700	        3.8871056600	        2.0312713900	        7.1142401600	       -0.9400843200	        0.0563444000	       28.1679232300	        5.9716940100	       -1.4720331600	       -1.4393889900	       -1.6855945600	        0.1223916100	       -0.1100272900	        0.0188105300	        0.0526898400	        0.0452194500	       -0.0949819900	       -1.7150988000	       -0.0686309900	       -0.3030970900	       -0.0121558200	       -0.0386527700	        0.0029536300	
